# xmcd
#
# Track frame offsets:
#	150
#	18143
#	69781
#	91173
#
# Disc length: 2019 seconds
#
# Revision: 0
# Processed by: cddbd v1.5.2PL0 Copyright (c) Steve Scherf et al.
# Submitted via: EZCDAudioConverter 8.0.2.1
#
DISCID=1e07e104
DTITLE=Hài Vân Sơn - Live Show 06. Ba chàng độc thân
DYEAR=2002
DGENRE=Easy Listening
TTITLE0=Vân Sơn - Của nặng hơn người
TTITLE1=Quang Minh, Hồng Đào - Chuyện vợ chuyện chồng
TTITLE2=Vân Sơn, Bảo Liêm - Chuyện xui gia
TTITLE3=Vân Sơn, Bảo Liêm, Chí Tài - Ba chàng độc thân
EXTD=
EXTT0=
EXTT1=
EXTT2=
EXTT3=
PLAYORDER=
